<?xml version="1.0" encoding="UTF-8"?>
<svg width="36px" height="36px" viewBox="0 0 36 36" version="1.1" xmlns="http://www.w3.org/2000/svg" xmlns:xlink="http://www.w3.org/1999/xlink">
    <!-- Generator: Sketch 49 (51002) - http://www.bohemiancoding.com/sketch -->
    <title>edit</title>
    <desc>Created with Sketch.</desc>
    <defs></defs>
    <g id="Page-1" stroke="none" stroke-width="1" fill="none" fill-rule="evenodd">
        <g id="个人主页" transform="translate(-581.000000, -376.000000)" fill="#83CCD2" fill-rule="nonzero">
            <g id="edit" transform="translate(581.000000, 376.000000)">
                <path d="M5.62830001,15.6 L3.5982,15.6 C3.26819999,15.6 2.99999999,15.8679 2.99999999,16.1982 L2.99999999,19.8018 C2.99999999,20.1318 3.2679,20.4 3.5982,20.4 L5.62830001,20.4 C5.94954334,22.0644052 6.60517066,23.6463205 7.5555,25.05 L6.11939999,26.4864 C5.88594228,26.7200822 5.88594228,27.0987178 6.11939999,27.3324 L8.66760001,29.8806 C8.90128219,30.1140577 9.27991783,30.1140577 9.51360001,29.8806 L10.9497,28.4445 C12.3534694,29.3948666 13.9354903,30.0504954 15.6,30.3717 L15.6,32.4018 C15.6,32.7318 15.8679,33 16.1982,33 L19.8018,33 C20.1318,33 20.4,32.7321 20.4,32.4018 L20.4,30.3717 C22.0644052,30.0504567 23.6463205,29.3948293 25.05,28.4445 L26.4864,29.8806 C26.7200822,30.1140577 27.0987178,30.1140577 27.3324,29.8806 L29.8806,27.3324 C30.1140577,27.0987178 30.1140577,26.7200822 29.8806,26.4864 L28.4445,25.0503 C29.3948666,23.6465306 30.0504954,22.0645097 30.3717,20.4 L32.4018,20.4 C32.7318,20.4 33,20.1321 33,19.8018 L33,16.1982 C33,15.8682 32.7321,15.6 32.4018,15.6 L30.3717,15.6 C30.0504567,13.9355948 29.3948293,12.3536795 28.4445,10.95 L29.8806,9.51360001 C30.1140577,9.27991783 30.1140577,8.90128219 29.8806,8.66760001 L27.3324,6.11939999 C27.0987178,5.88594228 26.7200822,5.88594228 26.4864,6.11939999 L25.0503,7.5555 C23.6465306,6.60513343 22.0645097,5.94950462 20.4,5.62830001 L20.4,3.5982 C20.4,3.26819999 20.1321,2.99999999 19.8018,2.99999999 L16.1982,2.99999999 C15.8682,2.99999999 15.6,3.2679 15.6,3.5982 L15.6,5.62830001 C13.9355948,5.94954334 12.3536795,6.60517066 10.95,7.5555 L9.51360001,6.11939999 C9.27991783,5.88594228 8.90128219,5.88594228 8.66760001,6.11939999 L6.11939999,8.66760001 C5.88594228,8.90128219 5.88594228,9.27991783 6.11939999,9.51360001 L7.5555,10.9497 C6.60513343,12.3534694 5.94950462,13.9354903 5.62830001,15.6 Z M7.5555,10.95 L5.43449999,13.071 L3.99809999,11.6349 C3.94148937,11.5782162 3.88675975,11.5196845 3.834,11.4594 C2.59499999,10.0461 2.6505,7.8939 3.99809999,6.54599999 L6.54599999,3.99809999 C7.89449998,2.6496 10.0467,2.5956 11.4594,3.834 C11.5194,3.8862 11.5779,3.9411 11.6349,3.99809999 L13.071,5.4342 L10.95,7.5555 L9.2691,5.0706 C10.3090097,4.36714291 11.4301417,3.79197097 12.6081,3.35760001 C13.3964827,3.06731365 14.2071504,2.8415708 15.0321,2.68260001 L15.6,5.62799999 L12.6,5.62799999 L12.6,3.59790001 C12.6,3.51690001 12.6027,3.4371 12.6078,3.35760001 C12.732,1.48259999 14.2926,0 16.1982,0 L19.8018,0 C21.708,0 23.268,1.4832 23.3922,3.3579 C23.3973,3.43739999 23.4,3.51749999 23.4,3.5982 L23.4,5.62830001 L20.4,5.62830001 L20.9682,2.68229999 C22.2012372,2.92014757 23.4008211,3.30687939 24.5406,3.834 C25.3028364,4.1864916 26.0353232,4.60003909 26.7309,5.0706 L25.0503,7.5555 L22.929,5.43449999 L24.3651,3.99809999 C24.4221,3.9411 24.4806,3.8862 24.5406,3.834 C25.9539,2.59499999 28.1061,2.6505 29.454,3.99809999 L32.0019,6.54599999 C33.3504,7.89449998 33.4044,10.0467 32.166,11.4594 C32.1138,11.5194 32.0589,11.5779 32.0019,11.6349 L30.5658,13.071 L28.4445,10.95 L30.9294,9.2691 C31.6328571,10.3090097 32.208029,11.4301417 32.6424,12.6081 C32.9326863,13.3964827 33.1584292,14.2071504 33.3174,15.0321 L30.372,15.6 L30.372,12.6 L32.4021,12.6 C32.4831,12.6 32.5629,12.6027 32.6424,12.6078 C34.5174,12.732 36,14.2926 36,16.1982 L36,19.8018 C36,21.7083 34.5168,23.2683 32.6421,23.3922 C32.5626,23.3973 32.4825,23.4 32.4018,23.4 L30.3717,23.4 L30.3717,20.4 L33.3177,20.9682 C33.0798524,22.2012372 32.6931206,23.4008211 32.166,24.5406 C31.8135084,25.3028364 31.3999609,26.0353232 30.9294,26.7309 L28.4445,25.0503 L30.5655,22.929 L32.0019,24.3651 C32.0589,24.4221 32.1138,24.4806 32.166,24.5406 C33.405,25.9539 33.3495,28.1061 32.0019,29.454 L29.454,32.0019 C28.1055,33.3504 25.9533,33.4044 24.5406,32.166 C24.4806,32.1138 24.4221,32.0589 24.3651,32.0019 L22.929,30.5658 L25.05,28.4445 L26.7309,30.9294 C25.6909903,31.6328571 24.5698583,32.208029 23.3919,32.6424 C22.6035173,32.9326863 21.7928496,33.1584292 20.9679,33.3174 L20.4,30.372 L23.4,30.372 L23.4,32.4021 C23.4,32.4831 23.3973,32.5629 23.3922,32.6424 C23.268,34.5174 21.7074,36 19.8018,36 L16.1982,36 C14.2917,36 12.7317,34.5168 12.6078,32.6421 C12.602562,32.5621074 12.5999605,32.4819639 12.6,32.4018 L12.6,30.3717 L15.6,30.3717 L15.0318,33.3177 C13.7987628,33.0798524 12.5991789,32.6931206 11.4594,32.166 C10.6971636,31.8135084 9.96467685,31.3999609 9.2691,30.9294 L10.9497,28.4445 L13.071,30.5655 L11.6349,32.0019 C11.5779,32.0589 11.5194,32.1138 11.4594,32.166 C10.0461,33.405 7.8939,33.3495 6.54599999,32.0019 L3.99809999,29.454 C2.6496,28.1055 2.5956,25.9533 3.834,24.5406 C3.8862,24.4806 3.9411,24.4221 3.99809999,24.3651 L5.4342,22.929 L7.5555,25.05 L5.0706,26.7309 C4.36714291,25.6909903 3.79197097,24.5698583 3.35760001,23.3919 C3.06731365,22.6035173 2.8415708,21.7928496 2.68260001,20.9679 L5.62799999,20.4 L5.62799999,23.4 L3.59790001,23.4 C3.51690001,23.4 3.4371,23.3973 3.35760001,23.3922 C1.48259999,23.268 0,21.7074 0,19.8018 L0,16.1982 C0,14.292 1.4832,12.732 3.3579,12.6078 C3.43739999,12.6027 3.51749999,12.6 3.5982,12.6 L5.62830001,12.6 L5.62830001,15.6 L2.68229999,15.0318 C2.92014757,13.7987628 3.30687939,12.5991789 3.834,11.4594 C4.1864916,10.6971636 4.60003909,9.96467685 5.0706,9.2691 L7.5555,10.9497 L7.5555,10.95 Z M18,26.1 C13.5264,26.1 9.9,22.4736 9.9,18 C9.9,13.5264 13.5264,9.9 18,9.9 C22.4736,9.9 26.1,13.5264 26.1,18 C26.1,22.4736 22.4736,26.1 18,26.1 Z M18,23.1 C20.8167,23.1 23.1,20.8167 23.1,18 C23.1,15.1833 20.8167,12.9 18,12.9 C15.1833,12.9 12.9,15.1833 12.9,18 C12.9,20.8167 15.1833,23.1 18,23.1 Z" id="Shape"></path>
            </g>
        </g>
    </g>
</svg>