<?xml version="1.0" encoding="UTF-8"?>
<svg width="32px" height="30px" viewBox="0 0 32 30" version="1.1" xmlns="http://www.w3.org/2000/svg" xmlns:xlink="http://www.w3.org/1999/xlink">
    <!-- Generator: Sketch 49 (51002) - http://www.bohemiancoding.com/sketch -->
    <title>heart</title>
    <desc>Created with Sketch.</desc>
    <defs></defs>
    <g id="Page-1" stroke="none" stroke-width="1" fill="none" fill-rule="evenodd">
        <g id="创作者展示页面" transform="translate(-388.000000, -794.000000)" fill="#CCA6BF" fill-rule="nonzero">
            <g id="heart" transform="translate(388.000000, 794.000000)">
                <path d="M21.3841216,2.72726167 C19.1822027,2.72726167 17.199527,3.71998454 15.8108108,5.30561386 C14.4228851,3.71998454 12.4399459,2.72726167 10.2375,2.72726167 C6.03893919,2.72726167 2.63513515,6.33488201 2.63513515,10.7857714 C2.63513515,11.9816751 2.83461487,13.1325791 3.18350675,14.2311197 C3.18350675,14.2311197 3.50024998,15.2227517 3.78036487,15.7687492 C6.9846892,22.746991 15.8108108,27.2726073 15.8108108,27.2726073 C15.8108108,27.2726073 24.6364054,22.746991 27.8409932,15.7687492 C27.8409932,15.7687492 28.2547095,14.8387533 28.4378514,14.2311197 C28.7714595,13.1271246 28.986223,11.9816751 28.986223,10.7857714 C28.9864865,6.33488201 25.5826824,2.72726167 21.3841216,2.72726167 Z M1.30966216,16.7513812 C1.22790827,16.57068 1.15093368,16.3877036 1.07882431,16.2026564 C0.934250981,15.8339494 0.801282294,15.4604816 0.68012839,15.0828432 C0.233472971,13.6766676 0,12.2413103 0,10.7857714 C0,4.84307044 4.56932432,1.03892569e-06 10.2375,1.03892569e-06 C12.2199346,-0.000866022503 14.1585833,0.603433048 15.8108108,1.73726605 C17.4630182,0.60338863 19.4016801,-0.000914572022 21.3841216,1.03892569e-06 C27.0522973,1.03892569e-06 31.6216216,4.84334317 31.6216216,10.7857714 C31.6216216,12.2034014 31.3892027,13.6016679 30.9533514,15.0443888 C30.8823768,15.2758739 30.8038932,15.5048208 30.7180338,15.7308403 C30.5676144,16.1281255 30.4065453,16.521003 30.2350135,16.9090169 C28.9153378,19.7835496 26.7995878,22.3799017 24.1080608,24.7539821 C22.5546486,26.1238851 20.9018919,27.3375161 19.2488716,28.3886023 C18.6691419,28.757328 18.1289392,29.0805083 17.6406486,29.3567798 C17.4228887,29.480935 17.2029042,29.6008646 16.9808108,29.7165055 C16.2436563,30.0944982 15.3782289,30.0944982 14.6410743,29.7165055 C14.418979,29.6007743 14.1989945,29.4807538 13.9812365,29.3565071 C13.4372751,29.0479594 12.9009415,28.7252212 12.37275,28.3886023 C10.7199932,27.3377888 9.06697299,26.1238851 7.51382431,24.7539821 C4.83758109,22.393538 2.73105405,19.8135495 1.42297298,16.9886529 C1.38476352,16.9122896 1.34708108,16.833199 1.30966216,16.7513812 Z" id="Shape"></path>
            </g>
        </g>
    </g>
</svg>