<?xml version="1.0" encoding="UTF-8"?>
<svg width="33px" height="36px" viewBox="0 0 33 36" version="1.1" xmlns="http://www.w3.org/2000/svg" xmlns:xlink="http://www.w3.org/1999/xlink">
    <!-- Generator: Sketch 49 (51002) - http://www.bohemiancoding.com/sketch -->
    <title>home</title>
    <desc>Created with Sketch.</desc>
    <defs></defs>
    <g id="Page-1" stroke="none" stroke-width="1" fill="none" fill-rule="evenodd">
        <g id="个人主页" transform="translate(-165.000000, -376.000000)" fill="#83CCD2" fill-rule="nonzero">
            <g id="home" transform="translate(165.000000, 376.000000)">
                <path d="M1.57949501,11.1785397 C0.594784572,11.9997468 0.0248775138,13.2152998 0.0234146459,14.4974985 L0.0234146459,31.6707278 C0.0234146459,34.0632913 1.96941424,36 4.36287688,36 L28.3484535,36 C30.9100519,36 32.9912195,33.928423 32.9912195,31.3731184 L32.9912195,14.4974985 C32.989769,13.2155983 32.4200982,12.0003007 31.4357385,11.1791391 L19.2909986,1.04423648 C17.6792345,-0.301343277 15.3356993,-0.301343277 13.7239352,1.04423648 L1.57949501,11.1788394 L1.57949501,11.1785397 Z M17.3698747,3.34478985 L29.5146146,13.4796925 C29.8171447,13.7313252 29.9927274,14.1039995 29.9941463,14.4974985 L29.9941463,31.3731184 C29.9941463,32.2701425 29.2580652,33.0029268 28.3487532,33.0029268 L4.36257718,33.0029268 C3.621401,33.0029268 3.02018811,32.404711 3.02018811,31.6710275 L3.02018811,14.4977982 C3.02140956,14.103849 3.1971238,13.7306895 3.5000195,13.4787934 L15.64416,3.34568898 C16.1437138,2.92860626 16.8700313,2.92835397 17.3698747,3.34508955 L17.3698747,3.34478985 Z M9.31434146,36 L23.100878,36 L23.100878,22.2125643 C23.100878,20.8887571 22.0249288,19.8158049 20.7032195,19.8158049 L11.712,19.8158049 C10.3875934,19.8158049 9.31434146,20.8902556 9.31434146,22.2125643 L9.31434146,36 Z M12.3114146,32.7032195 L12.3114146,24.0572628 C12.3114146,23.5378701 12.7531832,23.1125854 13.302247,23.1125854 L19.1129725,23.1125854 C19.6644339,23.1125854 20.1038049,23.5360718 20.1038049,24.0572628 L20.1038049,32.7032195 L12.3114146,32.7032195 Z" id="Shape"></path>
            </g>
        </g>
    </g>
</svg>