<?xml version="1.0" encoding="UTF-8"?>
<svg width="32px" height="36px" viewBox="0 0 32 36" version="1.1" xmlns="http://www.w3.org/2000/svg" xmlns:xlink="http://www.w3.org/1999/xlink">
    <!-- Generator: Sketch 49 (51002) - http://www.bohemiancoding.com/sketch -->
    <title>ring</title>
    <desc>Created with Sketch.</desc>
    <defs></defs>
    <g id="Page-1" stroke="none" stroke-width="1" fill="none" fill-rule="evenodd">
        <g id="个人主页" transform="translate(-295.000000, -376.000000)" fill="#83CCD2" fill-rule="nonzero">
            <g id="ring" transform="translate(295.000000, 376.000000)">
                <path d="M28.3294984,20.4470392 C28.2996779,20.0567139 28.2698573,19.6363636 28.2400368,19.2460384 L28.2400368,19.1259383 C28.1803957,18.1951626 28.1207547,17.4145121 28.0909342,16.8440367 C28.0611137,16.5137615 28.0611137,16.2435363 28.0312931,16.0633861 L28.0312931,15.823186 C28.0014726,11.1092577 25.3176254,6.93577981 21.2620341,4.89407839 C20.9340083,2.13177649 18.6378279,0 15.804878,0 C12.9719282,0 10.6757478,2.13177649 10.347722,4.89407839 C6.29213071,6.93577981 3.6082835,11.1092577 3.57846295,15.883236 L3.57846295,16.0934112 C3.57846295,16.2735613 3.54864244,16.5437865 3.51882193,16.8740617 C3.48900141,17.4445371 3.42936035,18.2251876 3.36971929,19.1559633 L3.36971929,19.2760634 C3.33989878,19.6663886 3.31007823,20.0567139 3.28025772,20.4770642 C1.34192361,21.4378649 0,23.4795663 0,25.8215179 C0,28.9140951 2.32600092,31.4962469 5.36769443,31.7964971 L10.5564657,31.7964971 C11.0932352,34.1984987 13.2403129,36 15.804878,36 C18.3694432,36 20.4867004,34.1984987 21.0532904,31.7964971 L26.1227795,31.7964971 L26.2718822,31.7664721 C29.2837552,31.4662219 31.6097561,28.9140951 31.6097561,25.8215179 C31.6097561,23.4795663 30.2678325,21.4378649 28.3294984,20.4470392 Z M15.804878,33.0275229 C14.9102623,33.0275229 14.1647492,32.5471226 13.7472619,31.8265221 L17.8923148,31.8265221 C17.4450069,32.5471226 16.6994938,33.0275229 15.804878,33.0275229 Z M25.9438564,28.82402 L5.6658997,28.82402 C4.14505294,28.6738949 2.98205248,27.382819 2.98205248,25.8215179 C2.98205248,24.1701418 4.32397609,22.8190159 5.96410493,22.8190158 L6.11320757,22.8190158 C6.11320757,22.8190158 6.56051543,16.1834862 6.56051543,15.9132611 C6.56051543,11.6497081 9.39346528,8.04670561 13.299954,6.96580482 L13.299954,5.55462887 C13.299954,4.14345288 14.4331339,3.00250211 15.804878,3.00250207 C17.1766222,3.00250204 18.3098021,4.14345288 18.3098021,5.55462887 L18.3098021,6.96580482 C22.2162908,8.04670557 25.0492407,11.6497081 25.0492407,15.9132611 C25.0492407,16.1834862 25.4965485,22.8190159 25.4965485,22.8190158 L25.6456512,22.8190158 C27.28578,22.8190158 28.6277036,24.1701418 28.6277036,25.8215179 C28.6277036,27.382819 27.4647032,28.6738949 25.9438564,28.82402 Z" id="Shape"></path>
            </g>
        </g>
    </g>
</svg>