<?xml version="1.0" encoding="UTF-8"?>
<svg width="39px" height="36px" viewBox="0 0 39 36" version="1.1" xmlns="http://www.w3.org/2000/svg" xmlns:xlink="http://www.w3.org/1999/xlink">
    <!-- Generator: Sketch 49 (51002) - http://www.bohemiancoding.com/sketch -->
    <title>shop</title>
    <desc>Created with Sketch.</desc>
    <defs></defs>
    <g id="Page-1" stroke="none" stroke-width="1" fill="none" fill-rule="evenodd">
        <g id="个人主页" transform="translate(-432.000000, -376.000000)" fill="#83CCD2" fill-rule="nonzero">
            <g id="shop" transform="translate(432.000000, 376.000000)">
                <path d="M32.4837697,16.0363125 L32.5000062,16.0363125 C32.5003786,16.9397625 33.2277806,17.67195 34.1249953,17.67195 C35.0224335,17.67195 35.7499845,16.9393125 35.7499845,16.0356 C35.7499845,15.7742625 35.6891349,15.52725 35.580991,15.3081 L32.8250338,3.2726625 L6.17500341,3.2726625 L3.4147637,15.317625 C3.31082786,15.52725 3.24997828,15.7742625 3.24997828,16.0356375 C3.24997828,16.93935 3.97752922,17.6719875 4.87496742,17.6719875 C5.77218218,17.6719875 6.49958416,16.9397625 6.49995655,16.0363875 L6.51619304,16.03635 C6.67904201,14.3826375 8.06484091,13.090875 9.74993483,13.090875 C11.4350288,13.090875 12.8208649,14.3826375 12.9836766,16.03635 L12.9999131,16.03635 C13.0000621,16.9399875 13.7275385,17.672475 14.6249022,17.672475 C15.522266,17.672475 16.2497797,16.9399875 16.2498914,16.0363875 L16.2661279,16.0363875 C16.4289768,14.382675 17.8147757,13.0909125 19.4998697,13.0909125 C21.1849636,13.0909125 22.5707997,14.382675 22.7336115,16.0363875 L22.7498479,16.0363875 C22.7499969,16.940025 23.4774734,17.6725125 24.3748371,17.6725125 C25.2722008,17.6725125 25.9997145,16.940025 25.9998262,16.036425 L26.0160627,16.036425 C26.1789117,14.3827125 27.5647106,13.09095 29.2498045,13.09095 C30.9348984,13.09095 32.3207346,14.3827125 32.4835463,16.036425 L32.4837697,16.0363125 Z M33.1500242,25.8544875 L33.1500242,32.0743125 C33.1500242,32.0748 33.1500242,32.0753625 33.1500242,32.0759625 C33.1500242,32.4356625 32.8604487,32.727225 32.5032833,32.727225 C32.5028364,32.727225 32.5023895,32.727225 32.5019054,32.727225 L6.49802009,32.727225 C6.14044502,32.7261 5.85090679,32.434425 5.84997579,32.074425 L5.84997579,25.854525 C5.84997579,25.85445 5.84997579,25.854375 5.84997579,25.8542625 C5.84997579,24.95055 5.12242485,24.2179125 4.22498666,24.2179125 C3.32754846,24.2179125 2.59999752,24.95055 2.59999752,25.8542625 C2.59999752,25.8543375 2.59999752,25.85445 2.59999752,25.854525 L2.59999752,33.3808125 C2.59999752,34.8273375 3.76351298,36 5.20327212,36 L33.7968396,36 C35.234625,36 36.4001142,34.8264 36.4001142,33.3808125 L36.4001142,25.854525 C36.4001142,25.85445 36.4001142,25.854375 36.4001142,25.8542625 C36.4001142,24.95055 35.6725633,24.2179125 34.7751251,24.2179125 C33.8776869,24.2179125 33.1501359,24.95055 33.1501359,25.8542625 C33.1501359,25.8543375 33.1501359,25.85445 33.1501359,25.854525 L33.1500242,25.8544875 Z M4.87496742,20.9454375 C2.4029998,20.9454375 0.360703199,19.09275 0.0428628311,16.6909125 L0.026626346,16.555425 C0.00964506799,16.400775 0,16.2214875 0,16.039875 C0,16.0386375 0,16.0374 0,16.0362 C0,15.1815375 2.74039098,2.565825 2.74039098,2.565825 C3.02151306,1.1506875 4.41315858,0 5.84770418,0 L33.1522958,0 C34.5836016,0 35.978189,1.1487375 36.259609,2.565825 C36.259609,2.565825 39,15.1815375 39,16.03635 C39,16.211775 38.9908763,16.384875 38.9730013,16.5553875 L39,16.690875 C38.6392596,19.0927125 36.596963,20.9454 34.1249953,20.9454 C31.6530277,20.9454 29.6107311,19.7472375 29.2928908,17.3454 C28.8892503,19.7472375 26.8469537,20.9454 24.374986,20.9454 C21.9030184,20.9454 19.8607218,19.7472375 19.5428815,17.3454 C19.1392409,19.7472375 17.0969443,20.9454 14.6249767,20.9454 C12.1530091,20.9454 10.1107125,19.7472375 9.79287214,17.3454 C9.38923163,19.7472375 7.34693503,20.9454 4.87496742,20.9454 L4.87496742,20.9454375 Z" id="Shape"></path>
            </g>
        </g>
    </g>
</svg>